<?xml version="1.0" encoding="UTF-8"?>
<!DOCTYPE svg PUBLIC "-//W3C//DTD SVG 1.1//EN" "http://www.w3.org/Graphics/SVG/1.1/DTD/svg11.dtd">
<svg xmlns="http://www.w3.org/2000/svg" version="1.1" width="324px" height="166px" style="shape-rendering:geometricPrecision; text-rendering:geometricPrecision; image-rendering:optimizeQuality; fill-rule:evenodd; clip-rule:evenodd" xmlns:xlink="http://www.w3.org/1999/xlink">
<g><path style="opacity:0.979" fill="#bc1211" d="M 144.5,82.5 C 140.699,81.3611 136.699,80.5277 132.5,80C 134.134,79.5065 135.801,79.3398 137.5,79.5C 163.467,81.3698 189.467,81.8698 215.5,81C 203.422,71.6303 189.755,66.1303 174.5,64.5C 172.366,62.9666 169.866,62.2999 167,62.5C 163.158,63.0603 159.324,63.2269 155.5,63C 156.416,62.7216 157.082,62.2216 157.5,61.5C 167.237,60.2148 176.904,60.3814 186.5,62C 184.606,60.9207 184.273,59.5874 185.5,58C 188.167,57.3333 190.833,57.3333 193.5,58C 194.585,60.172 195.919,62.172 197.5,64C 210.025,68.8482 222.191,74.3482 234,80.5C 251.931,78.7924 269.765,79.6258 287.5,83C 295.521,85.6876 300.854,91.0209 303.5,99C 303.167,99.8333 302.833,100.667 302.5,101.5C 300.058,98.7984 297.724,95.965 295.5,93C 288.204,89.4571 280.538,87.1238 272.5,86C 249.446,85.3787 226.446,85.8787 203.5,87.5C 183.72,87.1857 164.054,85.519 144.5,82.5 Z"/></g>
<g><path style="opacity:1" fill="#bd1917" d="M 157.5,61.5 C 157.082,62.2216 156.416,62.7216 155.5,63C 159.324,63.2269 163.158,63.0603 167,62.5C 169.866,62.2999 172.366,62.9666 174.5,64.5C 166.493,64.3336 158.493,64.5003 150.5,65C 134.063,70.5397 117.396,75.5397 100.5,80C 92.2098,81.6321 83.8764,82.9655 75.5,84C 73.114,85.8873 71.9473,88.3873 72,91.5C 71.8141,95.5159 71.8141,99.5159 72,103.5C 69.0364,100.299 67.8698,96.4655 68.5,92C 67.7802,86.9869 69.1135,82.6535 72.5,79C 81.0589,79.0345 89.3922,77.7011 97.5,75C 107.364,72.2673 117.031,68.934 126.5,65C 136.804,63.5633 147.137,62.3967 157.5,61.5 Z"/></g>
<g><path style="opacity:0.506" fill="#c53d3d" d="M 137.5,79.5 C 135.801,79.3398 134.134,79.5065 132.5,80C 136.699,80.5277 140.699,81.3611 144.5,82.5C 136.27,82.4618 128.27,81.1284 120.5,78.5C 126.335,77.5976 132.002,77.9309 137.5,79.5 Z"/></g>
<g><path style="opacity:1" fill="#c12623" d="M 38.5,89.5 C 38.5,88.5 38.5,87.5 38.5,86.5C 47.2314,86.3925 55.898,85.7258 64.5,84.5C 66.2825,86.0225 66.9492,88.0225 66.5,90.5C 57.174,90.0005 47.8406,89.6672 38.5,89.5 Z"/></g>
<g><path style="opacity:0.91" fill="#bb5759" d="M 38.5,86.5 C 38.5,87.5 38.5,88.5 38.5,89.5C 35.7531,89.8134 33.0865,89.48 30.5,88.5C 30.7093,87.914 31.0426,87.414 31.5,87C 33.8098,86.5034 36.1432,86.3367 38.5,86.5 Z"/></g>
<g><path style="opacity:1" fill="#bd1612" d="M 107.5,96.5 C 107.715,98.1788 107.048,99.1788 105.5,99.5C 105.635,102.417 104.968,105.084 103.5,107.5C 102.766,108.878 102.099,110.378 101.5,112C 99.1902,112.497 96.8568,112.663 94.5,112.5C 95.167,110.181 95.3336,107.847 95,105.5C 93.6233,107.754 92.1233,109.92 90.5,112C 88.0982,112.814 85.7649,112.647 83.5,111.5C 82.7463,108.223 82.2463,104.89 82,101.5C 81.4518,105.17 80.9518,108.837 80.5,112.5C 77.8333,112.5 75.1667,112.5 72.5,112.5C 73.9976,104.181 75.9976,96.0145 78.5,88C 81.8025,88.5456 85.1359,88.5456 88.5,88C 89.297,91.7454 89.797,95.5787 90,99.5C 91.4187,95.244 93.5853,91.4107 96.5,88C 99.8168,87.5017 103.15,87.335 106.5,87.5C 106.681,90.3971 106.348,93.2305 105.5,96C 105.683,97.6836 106.35,97.8502 107.5,96.5 Z"/></g>
<g><path style="opacity:1" fill="#bd1814" d="M 229.5,106.5 C 230.263,107.268 231.263,107.768 232.5,108C 231.944,108.383 231.611,108.883 231.5,109.5C 230.596,110.209 230.263,111.209 230.5,112.5C 225.156,112.666 219.823,112.499 214.5,112C 211.995,111.49 210.495,109.99 210,107.5C 208.403,99.1991 211.236,93.0325 218.5,89C 222.863,88.7095 227.196,88.2095 231.5,87.5C 234.597,88.5189 235.263,90.5189 233.5,93.5C 229.541,94.3265 225.541,94.8265 221.5,95C 218.817,96.8449 217.15,99.3449 216.5,102.5C 216.529,104.029 217.196,105.196 218.5,106C 222.152,106.499 225.818,106.665 229.5,106.5 Z"/></g>
<g><path style="opacity:0.996" fill="#c02e2d" d="M 63.5,91.5 C 56.3448,92.3288 49.0115,92.8288 41.5,93C 45.9558,92.8982 49.9558,93.7316 53.5,95.5C 40.7984,95.4982 28.1317,94.8315 15.5,93.5C 17.4233,92.6922 19.4233,92.1922 21.5,92C 35.496,91.5001 49.496,91.3334 63.5,91.5 Z"/></g>
<g><path style="opacity:1" fill="#b90508" d="M 63.5,91.5 C 65.7099,92.4551 66.0432,93.9551 64.5,96C 60.8517,96.0621 57.185,95.8954 53.5,95.5C 49.9558,93.7316 45.9558,92.8982 41.5,93C 49.0115,92.8288 56.3448,92.3288 63.5,91.5 Z"/></g>
<g><path style="opacity:0.991" fill="#bb100f" d="M 126.5,95.5 C 126.5,96.1667 126.5,96.8333 126.5,97.5C 126.5,97.8333 126.5,98.1667 126.5,98.5C 126.5,99.5 126.5,100.5 126.5,101.5C 127.185,106.67 125.185,110.17 120.5,112C 115.833,112.667 111.167,112.667 106.5,112C 104.561,111.092 103.561,109.592 103.5,107.5C 104.968,105.084 105.635,102.417 105.5,99.5C 107.048,99.1788 107.715,98.1788 107.5,96.5C 107.577,95.2502 108.244,94.4169 109.5,94C 115.455,92.9579 121.122,93.4579 126.5,95.5 Z M 112.5,100.5 C 114.833,100.5 117.167,100.5 119.5,100.5C 118.841,107.384 115.841,108.884 110.5,105C 111.267,103.53 111.933,102.03 112.5,100.5 Z"/></g>
<g><path style="opacity:0.999" fill="#bc1210" d="M 147.5,93.5 C 147.918,94.2216 148.584,94.7216 149.5,95C 148.226,95.9772 148.226,96.8106 149.5,97.5C 149.833,98.8333 150.167,98.8333 150.5,97.5C 151.404,96.791 151.737,95.791 151.5,94.5C 153.167,94.5 154.833,94.5 156.5,94.5C 155.793,97.7861 155.46,101.119 155.5,104.5C 155.5,104.833 155.5,105.167 155.5,105.5C 154.596,106.209 154.263,107.209 154.5,108.5C 154.5,109.833 154.5,111.167 154.5,112.5C 151.813,112.664 149.146,112.497 146.5,112C 147.899,107.911 148.732,103.744 149,99.5C 145.469,103.397 142.303,107.564 139.5,112C 136.773,112.818 134.106,112.652 131.5,111.5C 130.401,108.704 129.401,105.871 128.5,103C 128.164,101.97 127.497,101.47 126.5,101.5C 126.5,100.5 126.5,99.5 126.5,98.5C 127.833,98.1667 127.833,97.8333 126.5,97.5C 126.5,96.8333 126.5,96.1667 126.5,95.5C 128.635,93.631 131.302,92.9644 134.5,93.5C 134.618,96.6883 135.451,99.6883 137,102.5C 139.735,100.268 141.902,97.6014 143.5,94.5C 144.689,93.5713 146.022,93.238 147.5,93.5 Z"/></g>
<g><path style="opacity:0.999" fill="#bd1714" d="M 183.5,94.5 C 182.609,96.6089 181.442,98.6089 180,100.5C 179.503,102.81 179.337,105.143 179.5,107.5C 178.069,108.78 177.402,110.447 177.5,112.5C 174.833,112.5 172.167,112.5 169.5,112.5C 170.272,108.548 170.605,104.548 170.5,100.5C 168.5,100.5 166.5,100.5 164.5,100.5C 164.042,104.538 163.376,108.538 162.5,112.5C 160.167,112.5 157.833,112.5 155.5,112.5C 155.768,110.901 155.434,109.568 154.5,108.5C 154.263,107.209 154.596,106.209 155.5,105.5C 156.644,106.183 156.644,105.849 155.5,104.5C 155.46,101.119 155.793,97.7861 156.5,94.5C 154.833,94.5 153.167,94.5 151.5,94.5C 151.737,95.791 151.404,96.791 150.5,97.5C 150.167,97.5 149.833,97.5 149.5,97.5C 148.226,96.8106 148.226,95.9772 149.5,95C 148.584,94.7216 147.918,94.2216 147.5,93.5C 148.833,93.5 150.167,93.5 151.5,93.5C 151.324,89.1821 153.158,87.1821 157,87.5C 159.439,88.8616 159.939,90.695 158.5,93C 164.5,93.3333 170.5,93.6667 176.5,94C 177.787,95.4095 178.954,96.9095 180,98.5C 180.66,96.6763 181.827,95.343 183.5,94.5 Z"/></g>
<g><path style="opacity:0.999" fill="#bb1110" d="M 179.5,107.5 C 179.337,105.143 179.503,102.81 180,100.5C 181.442,98.6089 182.609,96.6089 183.5,94.5C 189.744,93.5422 196.077,93.2088 202.5,93.5C 200.986,100.924 199.152,108.257 197,115.5C 195.581,116.46 194.081,117.293 192.5,118C 188.179,118.499 183.846,118.666 179.5,118.5C 180.105,114.685 180.105,111.018 179.5,107.5 Z M 189.5,111.5 C 188.785,108.358 187.952,105.358 187,102.5C 188.808,100.604 190.975,100.104 193.5,101C 192.545,104.099 191.711,107.266 191,110.5C 190.617,111.056 190.117,111.389 189.5,111.5 Z"/></g>
<g><path style="opacity:0.999" fill="#bb0d0d" d="M 254.5,97.5 C 253.833,97.5 253.5,97.8333 253.5,98.5C 252.596,99.209 252.263,100.209 252.5,101.5C 252.5,101.833 252.5,102.167 252.5,102.5C 251.596,103.209 251.263,104.209 251.5,105.5C 251.5,105.833 251.5,106.167 251.5,106.5C 250.549,107.919 250.216,109.585 250.5,111.5C 248.265,111.205 246.265,111.539 244.5,112.5C 243.778,112.082 243.278,111.416 243,110.5C 241.647,111.704 239.981,112.371 238,112.5C 235.282,112.436 233.115,111.436 231.5,109.5C 231.611,108.883 231.944,108.383 232.5,108C 231.263,107.768 230.263,107.268 229.5,106.5C 230.858,102.558 232.858,98.7249 235.5,95C 241.715,93.5845 248.048,93.0845 254.5,93.5C 254.5,94.8333 254.5,96.1667 254.5,97.5 Z M 240.5,100.5 C 242.167,100.5 243.833,100.5 245.5,100.5C 245.067,103.166 244.567,105.832 244,108.5C 242.333,107.5 240.667,106.5 239,105.5C 238.387,103.505 238.887,101.838 240.5,100.5 Z"/></g>
<g><path style="opacity:1" fill="#bc1211" d="M 244.5,112.5 C 246.265,111.539 248.265,111.205 250.5,111.5C 250.216,109.585 250.549,107.919 251.5,106.5C 252.644,107.183 252.644,106.849 251.5,105.5C 251.263,104.209 251.596,103.209 252.5,102.5C 253.833,102.167 253.833,101.833 252.5,101.5C 252.263,100.209 252.596,99.209 253.5,98.5C 254.206,99.5573 254.539,99.2239 254.5,97.5C 257.977,94.2864 262.143,92.953 267,93.5C 269.625,93.5812 271.959,94.2478 274,95.5C 274.75,94.8742 275.584,94.3742 276.5,94C 282.491,93.5005 288.491,93.3338 294.5,93.5C 294.986,96.7553 293.986,99.422 291.5,101.5C 293.404,106.293 292.071,109.793 287.5,112C 281.509,112.499 275.509,112.666 269.5,112.5C 269.286,110.856 269.62,109.356 270.5,108C 275.202,107.828 279.868,107.328 284.5,106.5C 281.335,106.449 278.002,106.282 274.5,106C 272.329,104.826 271.329,102.993 271.5,100.5C 268.091,100.249 264.758,100.583 261.5,101.5C 260.588,105.133 259.921,108.8 259.5,112.5C 254.5,112.5 249.5,112.5 244.5,112.5 Z"/></g>
<g><path style="opacity:0.896" fill="#db8586" d="M 25.5,99.5 C 26.8333,100.167 28.1667,100.833 29.5,101.5C 25.1539,101.666 20.8206,101.499 16.5,101C 19.2784,99.6081 22.2784,99.1081 25.5,99.5 Z"/></g>
<g><path style="opacity:0.997" fill="#bf241e" d="M 29.5,101.5 C 28.1667,100.833 26.8333,100.167 25.5,99.5C 38.7071,99.3235 51.8737,98.6569 65,97.5C 67.1566,98.385 67.9899,100.052 67.5,102.5C 54.8275,102.348 42.1608,102.015 29.5,101.5 Z"/></g>
<g><path style="opacity:1" fill="#ba0a0c" d="M 65.5,104.5 C 66.1787,106.814 67.512,107.147 69.5,105.5C 70.3857,106.325 70.719,107.325 70.5,108.5C 63.4756,108.392 56.4756,107.892 49.5,107C 51.3817,106.802 53.0484,106.302 54.5,105.5C 58.2148,105.577 61.8815,105.244 65.5,104.5 Z"/></g>
<g><path style="opacity:0.273" fill="#c42f2d" d="M 65.5,104.5 C 67.5,104.5 69.5,104.5 71.5,104.5C 71.5,106.5 71.5,108.5 71.5,110.5C 57.4602,110.069 43.4602,109.069 29.5,107.5C 37.5479,106.137 45.8812,105.47 54.5,105.5C 53.0484,106.302 51.3817,106.802 49.5,107C 56.4756,107.892 63.4756,108.392 70.5,108.5C 70.719,107.325 70.3857,106.325 69.5,105.5C 67.512,107.147 66.1787,106.814 65.5,104.5 Z"/></g>
</svg>
